<svg width="83" height="83" viewBox="0 0 83 83" fill="none" xmlns="http://www.w3.org/2000/svg">
<g filter="url(#filter0_d_120_11)">
<g clip-path="url(#clip0_120_11)">
<rect x="4" width="75" height="75" rx="11" fill="white"/>
<path d="M52.4014 15.6406C55.8193 15.8359 58.627 17.1543 60.8242 19.5957C63.0215 21.9883 64.6084 24.7227 65.585 27.7988C66.5615 30.875 67.0498 34.0244 67.0498 37.2471C67.0498 40.4697 66.5615 43.6191 65.585 46.6953C64.6572 49.7715 63.0703 52.5303 60.8242 54.9717C58.627 57.3643 55.8193 58.6582 52.4014 58.8535H25.4482C24.1299 58.8047 23.0068 58.3408 22.0791 57.4619C21.2002 56.5342 20.7363 55.4111 20.6875 54.0928V35.9287C20.7363 34.5615 21.249 33.4385 22.2256 32.5596C23.2021 31.6318 24.374 31.168 25.7412 31.168C27.0596 31.2168 28.1826 31.7051 29.1104 32.6328C30.0381 33.5117 30.5264 34.6104 30.5752 35.9287V47.0615C30.5752 48.3799 31.2588 49.0391 32.626 49.0391H49.9111C51.7666 48.9414 53.3047 48.2334 54.5254 46.915C55.7461 45.5967 56.625 44.1074 57.1621 42.4473C57.748 40.7383 58.041 39.0049 58.041 37.2471C58.041 35.4893 57.748 33.7803 57.1621 32.1201C56.625 30.4111 55.7461 28.8975 54.5254 27.5791C53.3047 26.2607 51.7666 25.5527 49.9111 25.4551H25.4482C22.5186 25.2109 20.9316 23.624 20.6875 20.6943C20.6875 19.3271 21.127 18.1553 22.0059 17.1787C22.9336 16.2021 24.0811 15.6895 25.4482 15.6406H52.4014Z" fill="#219874"/>
</g>
</g>
<defs>
<filter id="filter0_d_120_11" x="0" y="0" width="83" height="83" filterUnits="userSpaceOnUse" color-interpolation-filters="sRGB">
<feFlood flood-opacity="0" result="BackgroundImageFix"/>
<feColorMatrix in="SourceAlpha" type="matrix" values="0 0 0 0 0 0 0 0 0 0 0 0 0 0 0 0 0 0 127 0" result="hardAlpha"/>
<feOffset dy="4"/>
<feGaussianBlur stdDeviation="2"/>
<feComposite in2="hardAlpha" operator="out"/>
<feColorMatrix type="matrix" values="0 0 0 0 0 0 0 0 0 0 0 0 0 0 0 0 0 0 0.25 0"/>
<feBlend mode="normal" in2="BackgroundImageFix" result="effect1_dropShadow_120_11"/>
<feBlend mode="normal" in="SourceGraphic" in2="effect1_dropShadow_120_11" result="shape"/>
</filter>
<clipPath id="clip0_120_11">
<rect x="4" width="75" height="75" rx="11" fill="white"/>
</clipPath>
</defs>
</svg>
