<svg width="98" height="98" viewBox="0 0 98 98" fill="none" xmlns="http://www.w3.org/2000/svg">
<circle cx="48.5" cy="29.5" r="10.5" stroke="#219874" stroke-width="10"/>
<mask id="path-2-inside-1_143_11" fill="white">
<path d="M22 74.5C22 59.8645 33.8645 48 48.5 48V48C63.1355 48 75 59.8645 75 74.5V84.9791V84.9791C75 84.9907 74.9907 85 74.9791 85H22V74.5Z"/>
</mask>
<path d="M22.002 90L75.002 89.9791L74.998 79.9791L21.998 80L22.002 90ZM22 85H12V95H22V85ZM74.9791 75H22V95H74.9791V75ZM32 85V74.5H12V85H32ZM65 74.5V84.9791H85V74.5H65ZM74.9791 95C80.5135 95 85 90.5135 85 84.9791H65C65 79.4678 69.4678 75 74.9791 75V95ZM48.5 58C57.6127 58 65 65.3873 65 74.5H85C85 54.3416 68.6584 38 48.5 38V58ZM48.5 38C28.3416 38 12 54.3416 12 74.5H32C32 65.3873 39.3873 58 48.5 58V38Z" fill="#219874" mask="url(#path-2-inside-1_143_11)"/>
<rect x="5.5" y="5.5" width="87" height="86" rx="13.5" stroke="#219874" stroke-width="7"/>
</svg>
